PathFileType	4	(X/Y/Z)	G:\TennisProject\Miami_Dimitrov_Sinner_masked_Sports2D\Miami_Dimitrov_Sinner_masked_Sports2D_px_person02.trc
DataRate	CameraRate	NumFrames	NumMarkers	Units	OrigDataRate	OrigDataStartFrame	OrigNumFrames
25	25	6	22	m	25	249	499
Frame#	Time	Hip			RHip			RKnee			RAnkle			RBigToe			RSmallToe			RHeel			LHip			LKnee			LAnkle			LBigToe			LSmallToe			LHeel			Neck			Head			Nose			RShoulder			RElbow			RWrist			LShoulder			LElbow			LWrist		
		X1	Y1	Z1	X2	Y2	Z2	X3	Y3	Z3	X4	Y4	Z4	X5	Y5	Z5	X6	Y6	Z6	X7	Y7	Z7	X8	Y8	Z8	X9	Y9	Z9	X10	Y10	Z10	X11	Y11	Z11	X12	Y12	Z12	X13	Y13	Z13	X14	Y14	Z14	X15	Y15	Z15	X16	Y16	Z16	X17	Y17	Z17	X18	Y18	Z18	X19	Y19	Z19	X20	Y20	Z20	X21	Y21	Z21	X22	Y22	Z22
249	9.96	1327.0824768853502	174.23126543551885	0.0	1321.1648300045665	175.05020305987773	0.0	1319.1549591389369	195.8257478905349	0.0	1317.0244895743294	217.7596577936801	0.0	1317.0261589522415	222.357260102313	0.0	1314.2715508428214	222.0631208150447	0.0	1317.4277785977577	220.34890359480684	0.0	1332.179133469403	175.37901384083537	0.0	1332.2472910580939	195.9007634702954	0.0	1332.0714495417017	217.91617394828538	0.0	1332.9426879274029	221.9110924868125	0.0	1335.0749636032601	221.62968448740554	0.0	1330.5455321109391	220.60910183343287	0.0	1328.5078118975885	143.2586046922292	0.0	1328.5558710848081	129.57763777352397	0.0	1328.4525074210428	137.28632522444082	0.0	1318.3550571718044	148.7814444270803	0.0	1315.386154576889	161.959280572396	0.0	1322.6190459173292	167.52729804582327	0.0	1338.1587506701014	149.32122811514716	0.0	1339.298368980532	162.4192213532079	0.0	1332.0714120950279	167.02987763498112	0.0
250	10.0	1327.058457908763	174.33896754820876	0.0	1321.052780039563	175.16568615014026	0.0	1319.0671355782442	195.7728402479036	0.0	1317.0127829514145	217.66102851145592	0.0	1317.0220863644454	222.4618190364908	0.0	1314.181053251331	222.18182078335107	0.0	1317.3590482321424	220.2076050550817	0.0	1332.07288118734	175.45455351242012	0.0	1332.0962913114233	195.85923134518455	0.0	1332.0877759420605	217.94183346075363	0.0	1332.9374811017392	222.15616607438855	0.0	1335.125740666292	221.86266034645448	0.0	1330.6561226312083	220.7279175109162	0.0	1328.4363209962744	143.14028530424144	0.0	1328.4277000218426	129.52280191073032	0.0	1328.4216085620712	137.17648600379152	0.0	1318.2325388921054	148.7876094356829	0.0	1315.1926505379422	162.0901532732286	0.0	1322.478292307103	167.53002920631158	0.0	1338.0519172444824	149.3489416736749	0.0	1339.1853646340958	162.45184649999612	0.0	1332.0878398850527	167.04793537875446	0.0
251	10.040000000000001	1327.1370089747538	174.22789676284685	0.0	1321.1494071322495	174.97695631728183	0.0	1319.1371580604064	195.72885338087485	0.0	1317.1299104890695	217.79873482185212	0.0	1317.0573811751135	222.41446442151772	0.0	1314.225048581645	222.2137981247473	0.0	1317.3390324345798	220.47951654311592	0.0	1332.10835078927	175.30603838416533	0.0	1332.167894128752	195.83821946344267	0.0	1332.0026705730531	217.96291073350102	0.0	1332.8733150395747	221.9707512584148	0.0	1335.2225722771373	221.6973785934678	0.0	1330.4734445584695	220.6617836773629	0.0	1328.4234850932633	143.23904200595916	0.0	1328.4818260684476	129.54449726116096	0.0	1328.2926096217752	137.26662568532197	0.0	1318.2658012613108	148.78609653182255	0.0	1315.2485748470656	161.98060636494677	0.0	1322.7057740351022	167.37532330732537	0.0	1338.0981469215124	149.32996591768645	0.0	1339.2397677988808	162.31833888669289	0.0	1332.0031546992102	167.083508580883	0.0
252	10.08	1327.2095471440766	174.11010236779373	0.0	1321.3476097983762	174.86158178684218	0.0	1319.3124970808208	195.80087008781038	0.0	1317.2161664971723	218.02046249248892	0.0	1317.0209251704084	222.34265561452068	0.0	1314.2883804992357	222.19799424913884	0.0	1317.4226036319228	220.78336859353684	0.0	1332.2351059030962	175.23024457240723	0.0	1332.3400639804975	195.87235013985716	0.0	1331.9390373025847	217.97528764990074	0.0	1332.8271515262945	221.76937891255687	0.0	1335.246459223986	221.50210276016537	0.0	1330.3141786776255	220.6597087236969	0.0	1328.4529439834637	143.38020131674	0.0	1328.5651755646506	129.69707017218147	0.0	1328.1651764040116	137.46740523042928	0.0	1318.3484031848116	148.78536594502077	0.0	1315.4565999304493	161.7849503519269	0.0	1322.9867242708958	167.3024398879355	0.0	1338.1535848627677	149.3178883185743	0.0	1339.3009430032794	162.2216074410869	0.0	1331.9389801100756	167.08093794465822	0.0
253	10.120000000000001	1327.2295889407471	174.15468420557775	0.0	1321.3795151394377	175.03089526675205	0.0	1319.3731347831733	195.84334661805278	0.0	1317.1454268629418	218.06199079826632	0.0	1316.9548072814796	222.42065892902258	0.0	1314.2761597812064	222.21927239463	0.0	1317.4979047494658	220.7272128032503	0.0	1332.3186227162885	175.35888662085983	0.0	1332.3650612112488	195.93549766697953	0.0	1331.9809835123747	217.9942697945032	0.0	1332.8470400344484	221.97177959068273	0.0	1335.1814325144815	221.7181640929609	0.0	1330.4566888808583	220.91545889428704	0.0	1328.4100956403558	143.38457447452282	0.0	1328.4714592242526	129.86061963031327	0.0	1328.160587945015	137.54610979465684	0.0	1318.286093967683	148.81821938733577	0.0	1315.3883202638274	161.82074129604308	0.0	1322.8167262133761	167.36659472117245	0.0	1338.0559377347793	149.35187404488659	0.0	1339.1941112241302	162.28306807796847	0.0	1331.9781195797202	167.03314129938406	0.0
254	10.16	1327.2270597753834	174.21358768300286	0.0	1321.3202333748568	175.12084126375953	0.0	1319.3394260135426	195.77828582996037	0.0	1317.0689499945968	217.96574151551644	0.0	1316.994127741942	222.53896414805362	0.0	1314.253237438227	222.24812889790832	0.0	1317.4965526854303	220.60403970465904	0.0	1332.3258588900799	175.40927954656053	0.0	1332.3371688236723	195.98367730184088	0.0	1332.0252345485424	218.0129956224657	0.0	1332.8744682698014	222.15427190898706	0.0	1335.140749206605	221.9386809109114	0.0	1330.5985133740471	221.04057977213253	0.0	1328.3662931151425	143.38708845168483	0.0	1328.372859309651	129.8855492902384	0.0	1328.2005455306594	137.52416916574776	0.0	1318.2025906641097	148.88376770849897	0.0	1315.1763211170423	161.99559810227447	0.0	1322.5139826568907	167.3672228869687	0.0	1337.9739440255862	149.36459064469176	0.0	1339.104783911263	162.36864740407387	0.0	1332.0243230209821	167.01004008512103	0.0
